<svg xmlns="http://www.w3.org/2000/svg" viewBox="0 0 465 465"><defs><style>.cls-1{fill:#cec7dd;}.cls-2{fill:#200f38;}</style></defs><g id="Layer_2" data-name="Layer 2"><g id="Layer_1-2" data-name="Layer 1"><path class="cls-1" d="M232.5,457A224.51,224.51,0,0,1,73.75,73.75a224.51,224.51,0,0,1,317.5,317.5A223.05,223.05,0,0,1,232.5,457Z"/><path class="cls-2" d="M232.5,16a216.56,216.56,0,0,1,84.27,416A216.56,216.56,0,0,1,148.23,33,215.07,215.07,0,0,1,232.5,16m0-16C104.09,0,0,104.09,0,232.5S104.09,465,232.5,465,465,360.91,465,232.5,360.91,0,232.5,0Z"/><circle class="cls-2" cx="232.5" cy="136.58" r="81.55"/><path class="cls-2" d="M300,212.73h0a34.28,34.28,0,0,0-20,6.54,81.56,81.56,0,0,1-95.06,0,34.28,34.28,0,0,0-20-6.54h0A33.85,33.85,0,0,0,141,222.64l-37.91,37.92A115.15,115.15,0,0,0,69.4,342h0a33.85,33.85,0,0,0,33.85,33.85h258.5A33.85,33.85,0,0,0,395.6,342h0a115.15,115.15,0,0,0-33.72-81.42L324,222.64A33.85,33.85,0,0,0,300,212.73Z"/></g></g></svg>