<?xml version="1.0" encoding="utf-8"?>
<!-- Generator: Adobe Illustrator 24.3.0, SVG Export Plug-In . SVG Version: 6.00 Build 0)  -->
<svg version="1.1" id="Layer_1" xmlns="http://www.w3.org/2000/svg" xmlns:xlink="http://www.w3.org/1999/xlink" x="0px" y="0px"
	 viewBox="0 0 400 400" style="enable-background:new 0 0 400 400;" xml:space="preserve">
<style type="text/css">
	.st0{fill:#CEC7DD;}
	.st1{fill:#200F38;}
</style>
<rect class="st0" width="400" height="400"/>
<g id="Layer_2_1_">
	<g id="Layer_1-2">
		<path class="st0" d="M200.4,400C89.7,400,0,310.3,0,199.6C0,146.4,21.1,95.5,58.7,57.9c78.7-77.8,205.6-77.1,283.4,1.6
			c77.2,78.1,77.2,203.7,0,281.8C304.6,379,253.6,400.1,200.4,400z"/>
		
			<ellipse transform="matrix(1 -1.783415e-03 1.783415e-03 1 -0.1996 0.3576)" class="st1" cx="200.4" cy="112.1" rx="72.8" ry="72.8"/>
		<path class="st1" d="M260.6,180.1L260.6,180.1c-6.4,0-12.7,2.1-17.9,5.8c-25.4,18.2-59.5,18.2-84.9,0c-5.2-3.8-11.4-5.8-17.9-5.8
			l0,0c-8,0-15.7,3.2-21.4,8.8l-33.8,33.8c-19.3,19.3-30.1,45.4-30.1,72.7l0,0c0,16.7,13.5,30.2,30.2,30.2h0h230.7
			c16.7,0,30.2-13.5,30.2-30.2c0,0,0,0,0,0l0,0c0-27.3-10.8-53.4-30.1-72.7l-33.8-33.9C276.4,183.2,268.7,180,260.6,180.1z"/>
	</g>
</g>
</svg>
